<?xml version="1.0" encoding="UTF-8"?>
<svg id="Camada_1" xmlns="http://www.w3.org/2000/svg" version="1.1" xmlns:xlink="http://www.w3.org/1999/xlink" viewBox="0 0 500 500">
  <!-- Generator: Adobe Illustrator 29.3.1, SVG Export Plug-In . SVG Version: 2.1.0 Build 151)  -->
  <defs>
    <style>
      .st0 {
        fill: #37474f;
      }

      .st1 {
        fill: #783736;
      }

      .st2, .st3, .st4, .st5, .st6, .st7, .st8, .st9, .st10, .st11, .st12, .st13 {
        isolation: isolate;
      }

      .st2, .st11, .st14 {
        fill: #27debf;
      }

      .st2, .st15 {
        opacity: .1;
      }

      .st3 {
        opacity: .9;
      }

      .st3, .st16 {
        fill: #fff;
      }

      .st17 {
        fill: #263238;
      }

      .st18 {
        fill: #f0f0f0;
      }

      .st19 {
        opacity: .4;
      }

      .st20 {
        fill: #ffa8a7;
      }

      .st21 {
        fill: #f28f8f;
      }

      .st22, .st13 {
        fill: #e0e0e0;
      }

      .st4 {
        opacity: .2;
      }

      .st5 {
        font-family: ArialMT, Arial;
        font-size: 24.3px;
      }

      .st5, .st7, .st23 {
        fill: #455a64;
      }

      .st24 {
        fill: #f79776;
      }

      .st6, .st11 {
        opacity: .2;
      }

      .st7, .st10, .st25 {
        opacity: .5;
      }

      .st8 {
        opacity: .3;
      }

      .st9 {
        opacity: .2;
      }

      .st26 {
        display: none;
      }

      .st27 {
        fill: #f5f5f5;
      }

      .st12 {
        opacity: .6;
      }

      .st28 {
        fill: #ffbda7;
      }

      .st13 {
        opacity: .8;
      }

      .st29 {
        fill: #e6e6e6;
      }

      .st30 {
        fill: #914f4e;
      }
    </style>
  </defs>
  <g id="Floor" class="st26">
    <ellipse id="Floor1" data-name="Floor" class="st27" cx="245" cy="349.7" rx="225" ry="129.9"/>
  </g>
  <g id="Shadows">
    <ellipse id="Shadow" class="st22" cx="283.5" cy="397.2" rx="41.4" ry="23.9"/>
    <ellipse id="Shadow1" data-name="Shadow" class="st22" cx="391.2" cy="383.1" rx="41.4" ry="23.9"/>
    <ellipse id="Shadow2" data-name="Shadow" class="st22" cx="164.8" cy="433.1" rx="41.4" ry="23.9"/>
  </g>
  <g id="Plants" class="st26">
    <g id="Plants1" data-name="Plants">
      <g>
        <path class="st0" d="M97,354.5s-1.1-25.3-11.7-39.3c-10.6-14.1-23.6-16.1-30-12.1-4.7,2.9-4.1,11.4,4.1,17,8.1,5.6,23.8,19.8,26.2,29.1l11.4,5.3Z"/>
        <path class="st16" d="M90,350.8c-.4,0-.6-.3-.6-.7,1.1-22.9-19-37.2-24.5-39.8-.3-.2-.5-.5-.3-.9.2-.3.5-.5.9-.3,5.6,2.7,26.3,17.4,25.2,41,0,.4-.3.6-.7.6,0,0,0,0,0,0Z"/>
      </g>
      <g>
        <path class="st23" d="M92,346.5c-1.5-.2-2.9-.5-3.9-1.5-1.2-1.4-1.1-3.4-1.7-5.2-.9-2.9-3.8-4.8-6.7-5.4s-6-.1-8.9.6c-5.9,1.4-11.6-2.2-17.5-1.8-2.1.2-4.3.7-6,1.9s-3,3.2-2.9,5.4c0,1.8,1.1,3.4,2.4,4.5s2.9,2,4.5,2.8c1.7.9,3.5,1.8,5.2,2.6.9.4,1.7.9,2.4,1.6,1.3,1.3,2.2,3.8,1.8,5.5-.4,2-2,3.5-2.5,5.5-.6,2.6.9,5.3,3.2,6.7,2.3,1.4,5,1.7,7.7,1.5,2.6-.2,5.3-.7,7.9-.7,1.8,0,3.6.2,5.2,1.1,1.9,1.1,2.9,3.2,3.6,5.3.4,1.3.8,2.7,1.6,3.9.9,1.2,2.2,2,3.5,2.5,2.6,1,5.7,1,8.3,0,2.2-.8,3.3-3.3,4.1-5.4.8-2.1,1.2-4.7,1.2-7-.2-6-1.5-12.4-4.1-17.7-1.2-2.6-3-5.1-5.7-6-.9-.3-1.8-.4-2.7-.5Z"/>
        <path class="st16" d="M97.7,374c-.2,0-.5-.2-.6-.4-6.2-17.7-35.4-33.1-46-34.8-.3,0-.5-.4-.5-.7,0-.3.4-.5.7-.5,10.9,1.8,40.6,17.5,47,35.6.1.3,0,.6-.4.7,0,0-.1,0-.2,0Z"/>
        <path class="st16" d="M71.4,364.3c-.2,0-.3,0-.5-.2-.2-.3-.1-.6.1-.8.3-.2,6.6-5,16.2-5.2h0c.3,0,.6.3.6.6,0,.3-.2.6-.6.6-9.2.2-15.5,4.9-15.5,5-.1,0-.2.1-.4.1Z"/>
      </g>
    </g>
  </g>
  <g id="Window" class="st26">
    <g>
      <g>
        <path class="st23" d="M98,387.7c-1.2-.7-2.1-2.4-2.1-3.8v-208.4c0-1.4,1-3.2,2.3-3.9L343.3,30c1.2-.7,3.2-.8,4.4,0,1.2.7,2.1,2.4,2.1,3.8v208.4c0,1.4-1,3.2-2.3,3.9l-245.2,141.5c-1.2.7-3.2.8-4.4,0Z"/>
        <path class="st14" d="M101.9,387.8s0,0,0,0c0,0-.1,0-.2,0,0,0-.1,0-.2,0,0,0-.2,0-.3,0,0,0-.1,0-.2,0-.1,0-.2,0-.3,0-.9.1-1.9,0-2.6-.4-1.2-.7-2.1-2.4-2.1-3.8v-181.7s4.2,2.4,4.2,2.4v181.7c0,1,.5,1.6,1.2,1.6s.2,0,.3,0c0,0,0,0,0,0,0,0,.1,0,.2,0Z"/>
        <path class="st13" d="M101.9,387.8s0,0,0,0c0,0-.1,0-.2,0,0,0-.1,0-.2,0,0,0-.2,0-.3,0,0,0-.1,0-.2,0-.1,0-.2,0-.3,0-.9.1-1.9,0-2.6-.4-1.2-.7-2.1-2.4-2.1-3.8v-181.7s4.2,2.4,4.2,2.4v181.7c0,1,.5,1.6,1.2,1.6s.2,0,.3,0c0,0,0,0,0,0,0,0,.1,0,.2,0Z"/>
        <polygon class="st14" points="100.1 204.6 95.9 202.2 95.9 242.5 100.1 245 100.1 204.6"/>
        <polygon class="st6" points="100.1 204.6 95.9 202.2 95.9 242.5 100.1 245 100.1 204.6"/>
        <path class="st17" d="M100.8,175.7c-.4.7-.7,1.5-.7,2.2v26.7l-4.2-2.4v-26.7c0,0,0-.2,0-.3,0-.2,0-.4,0-.6.1-.5.3-1,.6-1.4l4.2,2.4Z"/>
        <path class="st0" d="M349.8,33.8v12.1l-179.7,103.8c-1.2.7-2.3.1-2.3-1.3v-4.6c0-1.4-1-2-2.3-1.3l-54.7,31.6c-1.2.7-2.3,2.5-2.3,3.9v4.6c0,1.4-1,3.2-2.2,3.9l-6.2,3.6v-12.1c0-1.4,1-3.2,2.2-3.9L347.5,32.4c1.2-.7,2.2-.1,2.2,1.3Z"/>
        <path class="st14" d="M349.8,242.1c0,1.4-1,3.2-2.3,3.9l-245.2,141.5c-1.2.7-2.2.1-2.2-1.3v-196.3l6.2-3.6c1.2-.7,3.3-11.7,4.5-12.4l53.8-31.1c1.2-.7,4.2,7.4,5.4,6.6l179.7-103.8v196.3Z"/>
        <path class="st3" d="M349.8,242.1c0,1.4-1,3.2-2.3,3.9l-245.2,141.5c-1.2.7-2.2.1-2.2-1.3v-196.3l6.2-3.6c1.2-.7,3.3-11.7,4.5-12.4l53.8-31.1c1.2-.7,4.2,7.4,5.4,6.6l179.7-103.8v196.3Z"/>
        <g class="st19">
          <path class="st14" d="M348.8,47.5v194.6c0,1.1-.8,2.5-1.8,3l-245.2,141.5c-.3.2-.4.2-.5.2-.2,0-.2-.5-.2-.6v-195.8l5.7-3.3c.9-.5,1.4-2.3,2.7-6.8.6-2,1.4-5.1,1.9-5.7l53.4-30.8c.5.5,1.2,1.9,1.7,2.7,1.4,2.5,2.2,3.9,3.4,3.9s.5,0,.7-.2l178.2-102.9M349.8,45.8l-179.7,103.8c0,0-.1,0-.2,0-1.3,0-3.8-6.7-5.1-6.7s-.1,0-.2,0l-53.8,31.1c-1.2.7-3.3,11.7-4.5,12.4l-6.2,3.6v196.3c0,1,.5,1.6,1.2,1.6s.6,0,1-.3l245.2-141.5c1.2-.7,2.3-2.5,2.3-3.9V60.5s0-14.7,0-14.7h0Z"/>
        </g>
        <polygon class="st14" points="100.1 204.6 100.1 245 349.8 100.9 349.8 60.5 100.1 204.6"/>
        <path class="st18" d="M349.8,45.8v14.7L100.1,204.6v-14.7l4.6-2.7c1.2-.7,1.7-1.8,2.2-3.9l1.6-5.5c.5-1.9,1-3.2,2.3-3.9l53.8-31.1c1.2-.7,2.2-.8,3.2.8l1.9,3.5c.7,1.2,1.1,1.9,2.3,1.2l177.7-102.6Z"/>
        <g>
          <path class="st14" d="M339.2,41.3c1.6-.9,2.8-.2,2.8,1.6s-1.3,4-2.8,4.9-2.8.2-2.8-1.6c0-1.8,1.3-4,2.8-4.9Z"/>
          <path class="st14" d="M329,47.2c1.6-.9,2.8-.2,2.8,1.6s-1.3,4-2.8,4.9c-1.6.9-2.8.2-2.8-1.6s1.3-4,2.8-4.9Z"/>
          <path class="st14" d="M318.8,53.1c1.6-.9,2.8-.2,2.8,1.6s-1.3,4-2.8,4.9c-1.6.9-2.8.2-2.8-1.6,0-1.8,1.3-4,2.8-4.9Z"/>
        </g>
        <path class="st7" d="M110.5,191l-3.5,2,1.3-2.6c.1-.2.1-.5,0-.6-.1-.1-.3,0-.4.2l-1.9,3.7s0,0,0,0c0,0,0,0,0,.1,0,0,0,0,0,0,0,0,0,.1,0,.2s0,.1,0,.2c0,0,0,0,0,0,0,0,0,0,0,0,0,0,0,0,0,0l1.9,1.5c0,0,.1,0,.2,0,0,0,.2-.1.2-.3.1-.2,0-.5,0-.6l-1.3-1,3.5-2c.2,0,.3-.4.3-.6,0-.2-.1-.4-.3-.3Z"/>
        <path class="st7" d="M113.4,189.3l3.5-2-1.3-1c-.1,0-.1-.4,0-.6.1-.2.3-.4.4-.3l1.9,1.5s0,0,0,0c0,0,0,0,0,0,0,0,0,0,0,0,0,0,0,0,0,.2s0,.1,0,.2c0,0,0,0,0,0,0,0,0,0,0,.1,0,0,0,0,0,0l-1.9,3.7c0,.1-.1.2-.2.2,0,0-.2,0-.2,0-.1-.1,0-.4,0-.6l1.3-2.6-3.5,2c-.2,0-.3,0-.3-.3s.1-.5.3-.6Z"/>
        <path class="st7" d="M125,179.1c0-.2-.2-.2-.3,0l-.5,1.2c-.8,0-1.8.7-2.5,2.2-.9,1.9-.9,4.1,0,4.9.4.4,1,.4,1.6,0,.6-.3,1.2-1,1.6-1.9.1-.2.1-.5,0-.6s-.3,0-.4.2c-.7,1.4-1.7,2-2.4,1.4-.7-.6-.7-2.3,0-3.7.5-1,1.1-1.6,1.7-1.6l-.4.9c0,.2,0,.4.1.4l1.4-.9c.1,0,.2-.2.2-.4l-.2-2.1Z"/>
        <path class="st7" d="M163.1,149.6l1.3-2.7c.2-.3.2-.7,0-.9s-.4,0-.6.3l-1.3,2.7-1.3-1.2c-.2-.1-.4,0-.6.3s-.2.7,0,.9l1.3,1.2-1.3,2.7c-.2.3-.2.7,0,.9,0,0,.2,0,.3,0,.1,0,.2-.2.3-.3l1.3-2.7,1.3,1.2c0,0,.2,0,.3,0,.1,0,.2-.2.3-.3.2-.3.2-.7,0-.9l-1.3-1.2Z"/>
        <path class="st16" d="M129.7,182.5v-4.6c0-1.4,1-3.2,2.3-3.9l202.9-117.1c1.2-.7,2.3-.1,2.3,1.3v4.6c0,1.4-1,3.2-2.3,3.9l-202.9,117.1c-1.2.7-2.3.1-2.3-1.3Z"/>
        <path class="st22" d="M331.8,67c0,0-.1,0-.2,0-.2,0-.3-.3-.3-.6l.2-1.9s0,0,0,0l-.9-.7c-.1,0-.2-.2-.2-.4,0-.3.1-.6.3-.7l1.3-1s0,0,0-.2l.6-1.9c0-.3.3-.5.6-.6.2,0,.3,0,.4.3h0l.5,1.1,1.2-.5c.2,0,.4,0,.5.1.2.2.2.5,0,.8l-1,1.8c0,0,0,.1,0,.2l.2,1.6c0,.3-.1.6-.3.7-.1.1-.3.2-.4.2h-1.2c0-.1-1.2,1.4-1.2,1.4-.1.2-.3.3-.5.3ZM331,63.3l.9.7c.2.1.2.3.2.5l-.2,1.6,1-1.3c.1-.2.3-.3.5-.2h1.2c0,.1,0,0,0,0l-.2-1.6c0-.2,0-.4.1-.5l1-1.8-1.1.4c-.2,0-.5,0-.6-.2l-.5-1s0,0,0,0l-.6,1.9c0,.2-.2.3-.3.4l-1.3,1c0,0,0,.2-.1.2Z"/>
        <g class="st25">
          <path class="st23" d="M339.7,56.4c-.3,0-.5-.1-.7-.4-.2-.4,0-.9.3-1.1l6.3-3.7c.4-.2.9,0,1.1.3.2.4,0,.9-.3,1.1l-6.3,3.7c-.1,0-.3.1-.4.1Z"/>
          <path class="st23" d="M339.7,60c-.3,0-.5-.1-.7-.4-.2-.4,0-.9.3-1.1l6.3-3.7c.4-.2.9,0,1.1.3.2.4,0,.9-.3,1.1l-6.3,3.7c-.1,0-.3.1-.4.1Z"/>
          <path class="st23" d="M339.7,63.7c-.3,0-.5-.1-.7-.4-.2-.4,0-.9.3-1.1l6.3-3.7c.4-.2.9,0,1.1.3.2.4,0,.9-.3,1.1l-6.3,3.7c-.1,0-.3.1-.4.1Z"/>
        </g>
        <polygon class="st22" points="100.1 190 100.1 204.6 95.9 202.2 95.9 187.5 100.1 190"/>
      </g>
      <text class="st5" transform="translate(270.8 135.7) rotate(-30) scale(.7 .9) skewX(-33.7)"><tspan x="0" y="0">About us</tspan></text>
      <g>
        <polygon class="st2" points="110.9 254.5 180 214.6 180 327.2 110.7 367 110.9 254.5"/>
        <g>
          <path class="st11" d="M195.2,207.9l83.3-48.1c1.7-1,3-.2,3,1.6s-1.4,4.2-3,5.2l-83.3,48.6c-1.7,1-3,.2-3-1.7v-.3c0-1.9,1.4-4.3,3-5.2Z"/>
          <path class="st2" d="M194.3,222.5l137.8-79.6c1.2-.7,2.2-.2,2.2,1.1s-1,2.9-2.2,3.6l-137.8,79.6c-1.2.7-2.2.2-2.2-1.1,0-1.3,1-2.9,2.2-3.6Z"/>
          <path class="st2" d="M194.3,231.9l137.8-79.6c1.2-.7,2.2-.2,2.2,1.1s-1,2.9-2.2,3.6l-137.8,79.6c-1.2.7-2.2.2-2.2-1.1s1-2.9,2.2-3.6Z"/>
          <path class="st2" d="M194.3,241.3l137.8-79.6c1.2-.7,2.2-.2,2.2,1.1s-1,2.9-2.2,3.6l-137.8,79.6c-1.2.7-2.2.2-2.2-1.1,0-1.3,1-2.9,2.2-3.6Z"/>
          <path class="st2" d="M194.3,250.8l137.8-79.6c1.2-.7,2.2-.2,2.2,1.1s-1,2.9-2.2,3.6l-137.8,79.6c-1.2.7-2.2.2-2.2-1.1,0-1.3,1-2.9,2.2-3.6Z"/>
          <path class="st2" d="M194.3,260.2l96.2-56c1.2-.7,2.2-.2,2.2,1.1s-1,2.9-2.2,3.6l-96.2,56c-1.2.7-2.2.2-2.2-1.1s1-2.9,2.2-3.6Z"/>
          <path class="st2" d="M194.3,279l137.8-79.6c1.2-.7,2.2-.2,2.2,1.1s-1,2.9-2.2,3.6l-137.8,79.6c-1.2.7-2.2.2-2.2-1.1s1-2.9,2.2-3.6Z"/>
          <path class="st2" d="M194.3,288.4l137.8-79.6c1.2-.7,2.2-.2,2.2,1.1s-1,2.9-2.2,3.6l-137.8,79.6c-1.2.7-2.2.2-2.2-1.1s1-2.9,2.2-3.6Z"/>
          <path class="st2" d="M194.3,297.8l137.8-79.6c1.2-.7,2.2-.2,2.2,1.1s-1,2.9-2.2,3.6l-137.8,79.6c-1.2.7-2.2.2-2.2-1.1,0-1.3,1-2.9,2.2-3.6Z"/>
          <path class="st2" d="M194.3,307.3l50.6-29.6c1.2-.7,2.2-.2,2.2,1.1s-1,2.9-2.2,3.6l-50.6,29.6c-1.2.7-2.2.2-2.2-1.1s1-2.9,2.2-3.6Z"/>
        </g>
      </g>
    </g>
  </g>
  <g id="Character_3" class="st26">
    <g>
      <g>
        <path class="st20" d="M378.5,253.2c7.3-23.8,14.5-39.4,7.2-44.3h0c-6.8,1.3-9.8,4.6-11.2,13.5-1.5,9.4-4.6,22.4-6.5,29.9-1.5,6-4.3,13.6-6.8,18.2-.4.8-1.2,1.4-2,1.8-2.3.9-3.3,2-5.2,3.4-1.4,1-2.5,1.1-2.4,1.6,0,.6.7,1.6,2.3,1.4.8,0,1.8-.5,3.2-1,0,0-1.3,3.6-3.9,5.8-3.5,3-3,5.9,2.7,6.3,2,.1,6.8-1.7,11.2-9.2,1.3-2.2,2.7-5.7,3.9-8.6,3.1-7.6,6.2-13.8,7.7-18.6Z"/>
        <path class="st14" d="M387,208.6s-5.6-.3-9.1,3.5c-3.4,3.8-7.4,26.3-7.4,26.3,0,0,3.7,5.1,13.6,3l2.9-32.8Z"/>
        <path class="st8" d="M387,208.6s-5.6-.3-9.1,3.5c-3.4,3.8-7.4,26.3-7.4,26.3,0,0,3.7,5.1,13.6,3l2.9-32.8Z"/>
      </g>
      <g>
        <rect class="st20" x="405.8" y="368.4" width="7.6" height="13.5"/>
        <polygon class="st20" points="387.2 367.7 379.6 367.9 379.2 353.6 387.2 353.4 387.2 367.7"/>
        <path class="st0" d="M414.5,251.5c0,7.5-1.1,68.1-1.1,68.1.2,2.2,2.1,6.2,1.7,14.5-.6,11.3-1.3,41-1.3,41,0,0-3.7,2.2-8.4.2,0,0-7.2-41.1-8.5-52.4-1.2-9.8-3.2-42.7-3.2-42.7l-4.1,38.3s1.4,5.8.9,12.5c-.4,5.2-2.8,32.2-2.8,32.2,0,0-3.6,2.5-8.7.7,0,0-4.3-40.6-4.4-45.4-.1-5.4,2.5-67.1,2.5-67.1h37.5Z"/>
        <path class="st17" d="M405.8,378v-1.1c-.7.3-2.4,7-5.4,9.9-2.4,2.3-5.6,4.9-6.5,7.4-.9,2.6,4.5,4.1,6.8,3.7,2.6-.5,7.1-2.4,8.2-4.1s1.7-4.4,2.6-5.7,3-2.7,3.5-4.2c.3-.8,0-2.6-.4-4.1-.4-1.4-.7-2.9-1.2-2.8,0,.2,0,.9,0,.9-.5.6-2.1,1.3-3.8,1.3-1.1,0-3.8-.2-3.8-1.1Z"/>
        <path class="st17" d="M379.5,365.5c-.4,0-.7.6-1.6,1.6-1,1.2-2.8,2.5-4.5,3.3-2.8,1.5-8.3,3.8-10.8,4.9-1.6.7-1.5,2.7.1,3.8,1.6,1.1,5.5,1.9,10.2.8,2.5-.6,5.9-3,8-2.9,2.1.1,6,.1,7.6-1,1.5-1.1.9-3.5.5-5.5-.5-2.2-1.1-5.7-1.8-5.5v.8c-.9,1.4-5.6,2-7.6,1v-1.2Z"/>
        <path class="st17" d="M393.6,280.3s-6.1-1.8-10.5-6.3c0,0,2,4,8.1,7.7l-1.3,34.2,3.8-35.5Z"/>
      </g>
      <g>
        <path class="st14" d="M410.5,210.4s5.9.5,5.5,11.8l-1.3,18v27c-5.5,6.3-30.2,5.8-38.7-.5,0,0,1-31.9,1.5-44.2.4-8.7,2.4-13.1,11-14.1l10.6.5,11.4,1.6Z"/>
        <polygon class="st8" points="393.7 216.3 392.4 225.8 389.2 225.8 392.8 226.3 393.7 216.3"/>
      </g>
      <g>
        <path class="st17" d="M401.6,185c0,6.5-5,11.7-11.3,11.7s-11-5.3-11.3-11.7c-.5-11.5,5-11.7,11.3-11.7s11.3,5.3,11.3,11.7Z"/>
        <g>
          <path class="st17" d="M408,190.8s-1.7,8.5-2.4,9.9c-.7,1.4-2.1,1.8-2.1,1.8v-6c.1,0,4.5-5.7,4.5-5.7Z"/>
          <path class="st17" d="M405.9,178.7s1.2-.3,2.6,1.7c1.1,1.8,1.4,5.7-.4,10.4l-3.3.4,1.1-12.5Z"/>
          <path class="st20" d="M403.8,191.2c.7.4,1.6-.9,2.4-1.8.8-.9,3.4-2.1,4.7.8,1.3,2.9-1.2,6.8-3.2,7.5-3.6,1.2-4.1-1.2-4.1-1.2l-.3,13.4c-4.7,7.3-15.5,7.1-11.6-.4v-4.1s-3.2.5-4.8.3c-2.6-.4-4.3-2.6-5.1-5.5-1.3-4.8-1.8-8.6-.7-17.9,1.2-10.2,12.6-10.3,18.8-6.3,6.2,4,3.8,15.2,3.8,15.2Z"/>
          <path class="st17" d="M403.4,206.9s-1.7,3.6-4.6,5.8c-2.7,2-5.6,2.4-5.6,2.4,0,0,2.8,1.8,4,4.4,1.2,2.6,9.5-4.6,9.4-9.7,0,0-1.3-5.1-3.1-5.4v2.5Z"/>
          <path class="st17" d="M393.1,215.1s-2.6-1.3-1.4-5.5v-4.1s-1.1.2-1.1.2c-.9.8-2.3,2.6-2.7,4.7-.3,1.2-.9,7.1.2,8.3,1,1.1,2.7-3.2,5-3.5Z"/>
          <path class="st17" d="M399.4,180c.3,0,.6,0,.9,0,1,.4,1.2,3.5,1.3,4.3.6,2.9,1,7.9,2.2,7.9.3,0,1.6-2.2,2.4-2.9,1.1-1.1-.3-10.7-.3-10.7,0,0,1.1-2.4-1.1-4.9-2-2.3-5.2-2.8-8.1-3-3.4-.2-6.9,0-10.3-.7-1.1-.2-2.1-.6-3.2-.7-.1,0-.2,0-.3,0-.1,0,0,.3,0,.4.2,1,.6,2,1.1,2.9-2-.2-4-.6-5.9-1.2-.1,0-.2,0-.3,0-.2,0-.3.4-.3.6.1,2.4,1.3,6.1,3.3,7.5,1.5,1.1,4,1.8,5.9,1.8,5.3.1,8.6-1,13-1.5Z"/>
          <path class="st17" d="M405.9,179.2l3.9-2.2c-.6-1.2-1.9-1.6-3-1-1.1.6-1.5,2.1-1,3.2Z"/>
          <path class="st21" d="M391.7,205.5s5.9-1.2,7.9-2.4c1.4-.8,2.5-2.1,2.8-2.9,0,0-.4,1.8-1.6,3.4-1.5,2-9.1,3.5-9.1,3.5v-1.6Z"/>
        </g>
        <g>
          <path class="st17" d="M393.1,189.7c0,.7.5,1.3,1.2,1.3.6,0,1.2-.6,1.2-1.3s-.5-1.3-1.2-1.3c-.6,0-1.2.6-1.2,1.3Z"/>
          <path class="st17" d="M395,184.6l2.5,1.4c.4-.8.1-1.7-.6-2.1-.7-.4-1.6-.1-1.9.6Z"/>
          <path class="st21" d="M392.3,198.1l-2.7,1c.3.8,1.1,1.2,1.8.9.7-.3,1.1-1.2.9-2Z"/>
          <path class="st17" d="M382.4,185.7l2.3-1.8c-.5-.7-1.4-.8-2-.3s-.8,1.5-.3,2.2Z"/>
          <path class="st17" d="M383.4,189.3c0,.7.5,1.3,1.2,1.3.6,0,1.2-.6,1.2-1.3s-.5-1.3-1.2-1.3c-.6,0-1.2.6-1.2,1.3Z"/>
          <polygon class="st21" points="389.7 188.3 389.5 195.8 385.3 194.8 389.7 188.3"/>
        </g>
      </g>
      <g>
        <path class="st14" d="M422.1,195.8c1.7-2.2,5.1,2.7,6.7,6.2s1.6,5.4.3,6.7c-1.3,1.4-3.7.5-6.2-2.7-2.5-3.2-1.8-8.5-.8-10.2Z"/>
        <path class="st10" d="M422.1,195.8c1.7-2.2,5.1,2.7,6.7,6.2s1.6,5.4.3,6.7c-1.3,1.4-3.7.5-6.2-2.7-2.5-3.2-1.8-8.5-.8-10.2Z"/>
        <path class="st20" d="M434,196.5c-6,14-14.3,21.9-18.1,30.9-4.9-.3-8.7-12.2-5.1-17.3,0,0,14.4-15.6,15.7-21.7,1.2-5.4,2.7-14.4,2.6-19,0-.8-.4-1.5-.9-2-1.5-1.6-1.5-2.9-2.5-4.7-.8-1.4-1.6-1.9-1.3-2.2.3-.4,1.3-.9,2.4-.2.6.4,1,.8,1.9,1.8,0,0,.4-2.5-.8-5.3-1.7-3.8-1.3-5.7,3.8-4.4,3.2.8,5.2,3.5,5.7,11.2.1,2.2.3,6.8,0,9.6-.6,5.9-.9,12.1-1.6,17-.3,2.2-.9,4.3-1.7,6.3Z"/>
        <path class="st14" d="M409.3,210.3l12.7-14.5s-1.5,3.5,1.8,8.7c3.3,5.1,5.3,4.3,5.3,4.3,0,0-7.5,10.9-9.5,14.6s-4.1,6.7-4.1,6.7c0,0-.5,1.3-2.4,1.3-1.9,0-6.8-8.3-3.8-21.1Z"/>
        <path class="st8" d="M409.3,210.3l12.7-14.5s-1.5,3.5,1.8,8.7c3.3,5.1,5.3,4.3,5.3,4.3,0,0-7.5,10.9-9.5,14.6s-4.1,6.7-4.1,6.7c0,0-.5,1.3-2.4,1.3-1.9,0-6.8-8.3-3.8-21.1Z"/>
      </g>
    </g>
  </g>
  <g id="Character_2" class="st26">
    <g>
      <g>
        <polygon class="st21" points="306.4 242.8 312.4 250.8 306 258.2 297.7 248.5 306.4 242.8"/>
        <path class="st23" d="M286.9,224.8c5.2.2,7.7,1,10.4,4.3,2.7,3.1,16.4,22.9,16.4,22.9,0,0-2.4,6.8-7.7,6.2l-9.6-9.9-9.5-23.5Z"/>
      </g>
      <g>
        <g>
          <path class="st17" d="M261.3,389.9c-.2,1.3-.5,2.7-.6,6.3,0,3.8-.8,5.2-.9,8.3-.1,3.6.5,4.9,2,6.9s5.3,3.8,6.9.4c1.6-3.4,1.4-5.6.9-9.1-.5-3.6-.6-5.6-.9-8.4-.3-2.4-.6-4.3-.6-4.3h-6.7Z"/>
          <path class="st28" d="M272.1,360l-12.5-.2c.2,8.4,1.5,22.3,1.7,30.2,0,1.5,0,11.5.5,14.5.8,4.6,6.3,4,6.6,1.2.3-2.7-.3-14.4-.3-15.6,0-5,2.3-18.2,3.6-27.2,0-.4.5-2.4.5-2.8Z"/>
        </g>
        <g>
          <path class="st17" d="M290.6,383.4s-.6,0-.8.6c-.1.6-.1,1.6-.4,2.7-.4,1.4-.7,3.8-.4,5,.2,1.2,2.9,2.9,4.7,3.2s4.4,2.1,5.8,3.5c1.8,1.6,5.5,3.2,8.1,3.2,3,0,5.2-1,6.2-2.6,1-1.7-.9-1.8-4.4-4.1-.8-.5-1.7-1.1-2.7-1.8-5.5-3.6-7.5-5.5-9.1-9.1l-7-.4Z"/>
          <path class="st28" d="M297.6,381.4c0-2.6,1.2-21.7,1.2-21.7l-10.8,1.2c2.6,15.2,2.8,20.4,2.5,22.6h0c0,0,0,.3,0,.6,0,3,3.3,4.6,6,6.5,1,.8,3.7,3.2,6.8,4.2,2,.7,5.7.9,6.2-.3-3.2-2.4-7.5-5.6-10-8.3-1.2-1.3-1.7-2.3-1.8-4.9Z"/>
        </g>
        <path class="st14" d="M262.5,273.4c-5.9,12.9.2,58.1.2,58.1-.2,2.1-2.6,6.2-3.5,15.4-1,10.8,1.9,39.9,1.9,39.9,0,0,2.9,2.1,7,.1,0,0,7.6-42.7,9-53.5,1.2-9.4,3.5-30.1,3.5-30.1l6.5,30.1s-1.7,5.3-2.1,9.3c-.6,6.3,5.6,38.2,5.6,38.2,0,0,2.9,1.5,7-.1,0,0,2.7-41.1,3.3-48.8,1-12.8-2.4-52.9-4.8-60.5l-33.6,1.9Z"/>
        <path class="st10" d="M262.5,273.4c-5.9,12.9.2,58.1.2,58.1-.2,2.1-2.6,6.2-3.5,15.4-1,10.8,1.9,39.9,1.9,39.9,0,0,2.9,2.1,7,.1,0,0,7.6-42.7,9-53.5,1.2-9.4,3.5-30.1,3.5-30.1l6.5,30.1s-1.7,5.3-2.1,9.3c-.6,6.3,5.6,38.2,5.6,38.2,0,0,2.9,1.5,7-.1,0,0,2.7-41.1,3.3-48.8,1-12.8-2.4-52.9-4.8-60.5l-33.6,1.9Z"/>
        <path class="st9" d="M280.6,303.3l1.9-11.9s8.1-1.7,11.8-5.1c0,0-3.8,4.8-9.6,6.4l-2.1,9.2,3.8,27.8-5.7-26.3Z"/>
      </g>
      <g>
        <path class="st14" d="M265.5,233.4l8,2.1v-16.9h0c-4.4-1.2-8,1.4-8,5.7v9.1Z"/>
        <path class="st12" d="M265.5,233.4l8,2.1v-16.9h0c-4.4-1.2-8,1.4-8,5.7v9.1Z"/>
        <path class="st14" d="M281.3,221h-2.9c-8.8-.3-15.7-7.8-15.5-16.9h0c0-9.9,7.7-18,17.2-18.1h0c9.5,0,17.3,8,17.4,17.9v1c-.2,9.1-7.5,16.3-16.2,16.1Z"/>
        <path class="st12" d="M281.3,221h-2.9c-8.8-.3-15.7-7.8-15.5-16.9h0c0-9.9,7.7-18,17.2-18.1h0c9.5,0,17.3,8,17.4,17.9v1c-.2,9.1-7.5,16.3-16.2,16.1Z"/>
        <path class="st14" d="M267.9,190.1c-.3-1.2-1.6-1.9-2.8-1.6l.8,3c-.2-.2-.4-.4-.6-.5-1.1-.6-2.4-.2-3,1l3.9,2.3c.2-.4.3-.8.3-1.3,1.1-.5,1.7-1.7,1.4-2.9Z"/>
        <path class="st12" d="M267.9,190.1c-.3-1.2-1.6-1.9-2.8-1.6l.8,3c-.2-.2-.4-.4-.6-.5-1.1-.6-2.4-.2-3,1l3.9,2.3c.2-.4.3-.8.3-1.3,1.1-.5,1.7-1.7,1.4-2.9Z"/>
        <path class="st0" d="M272.7,225.5s-5.8.8-8,1.5c3.1,7.6-1.8,19.3-1.8,19.3l4.6,14.1c-3.2,6.5-5.8,9.7-6.9,15,2.9,5.7,23.5,11.1,36.9.8,0,0-.4-14.4-2.1-22.8,4.4-8.6,3.7-11.1,2.8-14.1-2.1-7-6.3-9.6-11.3-14.5l-3-.3-11.2,1Z"/>
        <path class="st17" d="M268,266.1c2.5-2.6,7.8-3.3,7.8-3.3l-4.8-2.8-5.4-13.1c3.8-7.2,3.3-14.4,3.3-14.4l-3.1-.7c.4,6.9-2.8,14.5-2.8,14.5l4.6,14.1c-3.2,6.5-5.8,9.7-6.9,15,2,3.9,12.3,7.7,22.9,6.3-14.2-1-17.9-13.2-15.5-15.7Z"/>
        <path class="st29" d="M282.4,281.9c.2,0,.4,0,.6,0-.2,0-.3,0-.6,0Z"/>
        <g>
          <path class="st28" d="M291.1,194.8c1.7,1.6,3.9,5,3.7,15-.1,8.5-2.8,10.6-4.1,11.2-1.3.6-3.9.3-6.4-.2v3.5s3.3,3.6,3,6c-.2,2.3-4.7,3.3-7.9,1s-6-6.1-6-6.1v-10.7s-1.5,1.5-4-.8c-2.1-1.9-2.8-5-1.2-6.7s4.5-1.3,5.7,1.1c0,0,5.7-.5,10.9-3.2,4.6-2.4,6.5-6.8,6.2-10.4Z"/>
          <path class="st17" d="M284.3,207.9c0,.6-.4,1.1-1,1.2s-1.1-.4-1.1-1.1c0-.6.4-1.1,1-1.2.6,0,1.1.4,1.1,1.1Z"/>
          <path class="st24" d="M284.7,215l2.7.9c-.2.8-1,1.2-1.7,1-.7-.2-1.2-1.1-.9-1.9Z"/>
          <path class="st17" d="M294,204.1l-2.4-.8c.2-.7.9-1.1,1.5-.9.7.2,1.1,1,.9,1.7Z"/>
          <path class="st14" d="M274.1,207.4v3.6c.9,0,1.7-.7,1.7-1.7,0-1-.8-1.8-1.7-1.9Z"/>
          <path class="st12" d="M274.1,207.4v3.6c.9,0,1.7-.7,1.7-1.7,0-1-.8-1.8-1.7-1.9Z"/>
          <path class="st17" d="M293.1,207.6c0,.6-.4,1.1-1,1.2-.6,0-1.1-.4-1.1-1.1,0-.6.4-1.1,1-1.2.6,0,1.1.4,1.1,1.1Z"/>
          <polygon class="st24" points="287.4 206.1 287.4 213.1 290.6 212 287.4 206.1"/>
          <path class="st24" d="M284.3,220.9c-2.6-.3-8-1.9-8.9-4.1,0,0,.3,1.4,1.9,2.8,1.6,1.4,7,3,7,3v-1.7Z"/>
        </g>
      </g>
      <g>
        <path class="st28" d="M252.4,261s6.4,9.1,7.5,10.3c1.1,1.2,1.9.8,3,.3,1.2-.5,3.5-1.2,4.5-1.5,2-.5,2.4,1.3.4,2.6-1.4.9-3,1.3-2.3,2.1s2.8,2.1,4.7,2.9c4.7,1.9,4.4,2.8,3.5,4.3-.8,1.3-3,4.2-11.4.8-3.5-1.4-8.4-5.4-10.7-8-3.4-3.7-8.6-10.4-8.6-10.4l9.5-3.5Z"/>
        <path class="st23" d="M265.9,226.7c-2.3.2-6.7.7-12.2,9.8-4.8,8-12.3,18.8-13.6,22.7-.6,1.6,1.6,4.8,4.4,8.1,3.8-.2,7.3-2.8,9.1-4.9-.8-1.9-1.8-3.2-1.8-3.2l11.2-12.8s4.3-3.9,5.2-9c1-5.5.7-9.8-2.4-10.6Z"/>
      </g>
      <g>
        <g>
          <polygon class="st14" points="328.8 243.9 301.1 251.2 293.5 282.6 319.8 274.9 328.8 243.9"/>
          <polygon class="st4" points="328.8 243.9 301.1 251.2 293.5 282.6 319.8 274.9 328.8 243.9"/>
        </g>
        <g class="st15">
          <path d="M316.3,266.1c.3.7,2,3.2,5.2,3.1l.2-.7-5.4-2.4Z"/>
        </g>
        <g class="st15">
          <path d="M320.5,248.9s.1-.5.2-1.1c.1-.6-1.5-.6-3.6,0l-4.1,1.1c-2.1.6-4,1.5-4.1,2.1l-.2,1.1,11.8-3.1Z"/>
        </g>
        <path class="st0" d="M322.6,244.9c0-.4-.6-.5-1.5-.2l-1.6.4s.5-2.3-3.1-1.5c-3.6.8-4.4,3.4-4.4,3.4,0,0-.8.2-1.7.5s-1.8.8-1.9,1.1l-.2.7,14.3-3.8s0-.3.2-.7Z"/>
        <path class="st0" d="M320.6,246.1c-1.3.3-1.9.5-2,1.4-.2,1-.3,1.8-.3,1.8l-6.3,1.7s.3-1.3.4-1.8c0-.5-.1-.8-1.1-.5v-.4c0,0,9.8-2.5,9.8-2.5l-.4.4Z"/>
        <path class="st0" d="M320.9,249s.1-.5.2-1.1c.1-.6-1.5-.6-3.6,0l-4.1,1.1c-2.1.6-4,1.5-4.1,2.1l-.2,1.1,11.8-3.1Z"/>
        <path class="st28" d="M325.9,254s-1,3.5-1.3,4.4-3.3,2.4-5.4,2.9-4.3,1.2-3.3,4.1c.9,2.6,4.2,3.2,5.9,3.2s4-1.7,5-4.3c1.2-3.4.5-6.9,1-8.9.5-2-.9-2.5-2-1.3Z"/>
      </g>
    </g>
  </g>
  <g id="Character_1" class="st26">
    <g>
      <g>
        <path class="st30" d="M220.9,254.8c-3.8-3.8-5.2-2.3-5.6,1.9-.4,3.1-1.3,5.1-1.3,5.1-.3-1.3-.4-1.9-.7-2.5-.7-1.3-1.8-1.3-2.3-1.1-.4.2,0,1,0,2.7,0,2.1-.7,3.2-.3,5.4.2.8,0,1.7-.4,2.4-2.1,3.8-8.6,10.8-13.2,15.9-4.1-3.7-13.2-11.9-17.6-15.9-6-5.4-7.9-7.8-13.7-7.4,0,0,2.2.7,4.9,3,2.7,2.3,2,15.3,2,15.3,0,0,19.9,14.3,22,15.6.3.2.6.4.9.5,2,1.1,4.5.6,6-1.1,4.3-4.9,10.4-14.4,14-19.4,1.7-2.3,3.3-5.5,4.3-7.5,3.6-7,3.2-10.4.8-12.8Z"/>
        <path class="st14" d="M166.5,261s4-1.1,8,2c3.4,2.6,18,16,18,16,0,0,.4,7.1-7,11.3l-17.9-12.6-1.1-16.6Z"/>
        <path class="st8" d="M166.5,261s4-1.1,8,2c3.4,2.6,18,16,18,16,0,0,.4,7.1-7,11.3l-17.9-12.6-1.1-16.6Z"/>
      </g>
      <g>
        <rect class="st30" x="141.7" y="421" width="7.6" height="13.5"/>
        <polygon class="st30" points="168 420.2 175.6 420.5 175.9 406.2 168 406 168 420.2"/>
        <path class="st0" d="M140.7,304.1c0,7.5,1.1,68.1,1.1,68.1-.2,2.2-2.1,6.2-1.7,14.5.6,11.3,1.3,41,1.3,41,0,0,3.7,2.2,8.4.2,0,0,7.2-41.1,8.5-52.4,1.2-9.8,3.2-42.7,3.2-42.7l4.1,38.3s-1.4,5.8-.9,12.5c.4,5.2,2.8,32.2,2.8,32.2,0,0,3.6,2.5,8.7.7,0,0,4.3-40.6,4.4-45.4.1-5.4-2.5-67.1-2.5-67.1h-37.5Z"/>
        <path class="st17" d="M149.3,430.6v-1.1c.7.3,2.4,7,5.4,9.9,2.4,2.3,5.6,4.9,6.5,7.4.9,2.6-4.5,4.1-6.8,3.7-2.6-.5-7.1-2.4-8.2-4.1-1.1-1.8-1.7-4.4-2.6-5.7-.9-1.3-3-2.7-3.5-4.2-.3-.8,0-2.6.4-4.1.4-1.4.7-2.9,1.2-2.8,0,.2,0,.9,0,.9.6.6,2.1,1.3,3.8,1.3,1.1,0,3.8-.2,3.8-1.1Z"/>
        <path class="st17" d="M175.6,418.1c.4,0,.7.6,1.6,1.6,1,1.2,2.8,2.5,4.5,3.3,2.8,1.5,8.3,3.8,10.8,4.9,1.6.7,1.5,2.7-.1,3.8-1.6,1.1-5.5,1.9-10.2.8-2.5-.6-5.9-3-8-2.9-2.1.1-6,.1-7.6-1-1.5-1.1-.9-3.5-.5-5.5.5-2.2,1.1-5.7,1.8-5.5v.8c.9,1.4,5.6,2,7.6,1v-1.2Z"/>
        <path class="st17" d="M161.5,332.8s6.1-1.8,10.5-6.3c0,0-2,4-8.1,7.7l1.3,34.2-3.8-35.5Z"/>
      </g>
      <g>
        <path class="st14" d="M144.6,263s-5.9.5-5.5,11.8l1.3,18v27c5.4,6.3,30.1,5.8,38.6-.5,0,0-.9-31.9-1.4-44.2-.4-8.7-2.4-13.1-11-14.1l-10.6.5-11.4,1.6Z"/>
        <polygon class="st8" points="161.4 268.9 162.8 278.4 166 278.3 162.4 278.9 161.4 268.9"/>
      </g>
      <g>
        <path class="st30" d="M125.8,301.8c3.1-24.7,10.1-37,18.8-38.4l-.6,15.8s-5.8,13.2-8.2,26.1c-1.1,6.1-2.4,16.6-2.1,21.8,0,.9.5,1.8,1.1,2.4,1.7,1.7,2.2,3.2,3.4,5.2.9,1.5,1.8,2.1,1.6,2.4-.3.5-1.3,1.1-2.6.3-.7-.4-1.5-1.2-2.5-2.2,0,0-.3,3.8,1.2,6.9,2,4.2,1.7,6.3-3.9,5.1-3.5-.8-6-4.5-7-13.1-.3-2.5-.3-6.5-.2-9.7.3-8.2.4-17.9,1-22.8Z"/>
        <path class="st14" d="M145.1,262.9c-4.5,0-8.6.8-11.8,7-3.1,6-5.5,18.7-6.7,22.8,0,0,6.5,3.9,12.5,3.8l4.2-14.7s2.9-6.9,1.7-18.9Z"/>
        <path class="st8" d="M145.1,262.9c-4.5,0-8.6.8-11.8,7-3.1,6-5.5,18.7-6.7,22.8,0,0,6.5,3.9,12.5,3.8l4.2-14.7s2.9-6.9,1.7-18.9Z"/>
      </g>
      <g>
        <path class="st17" d="M154.3,237.5c0,6.5,5,11.7,11.3,11.7s11.3-5.3,11.3-11.7-5-11.7-11.3-11.7-11.3,5.3-11.3,11.7Z"/>
        <g>
          <path class="st17" d="M147.1,243.4s1.7,8.5,2.4,9.9,2.1,1.8,2.1,1.8v-6c-.1,0-4.5-5.7-4.5-5.7Z"/>
          <path class="st17" d="M149.3,231.3s-1.2-.3-2.6,1.7c-1.1,1.8-1.4,5.7.4,10.4l3.3.4-1.1-12.5Z"/>
          <path class="st30" d="M151.3,243.8c-.7.4-1.6-.9-2.4-1.8-.8-.9-3.4-2.1-4.7.8-1.3,2.9,1.2,6.8,3.2,7.5,3.6,1.2,4.1-1.2,4.1-1.2l.3,13.4c4.7,7.3,15.5,7.1,11.6-.4v-4.1s3.2.5,4.8.3c2.6-.4,4.3-2.6,5.1-5.5,1.3-4.8,1.8-8.6.7-17.9-1.2-10.2-12.6-10.3-18.8-6.3-6.2,4-3.8,15.2-3.8,15.2Z"/>
          <path class="st17" d="M151.7,259.5s1.7,3.6,4.6,5.8c2.7,2,5.6,2.4,5.6,2.4,0,0-2.8,1.8-4,4.4s-9.5-4.6-9.4-9.7c0,0,1.3-5.1,3.1-5.4v2.5Z"/>
          <path class="st17" d="M162,267.7s2.6-1.3,1.4-5.5v-4.1s1.1.2,1.1.2c.9.8,2.3,2.6,2.7,4.7.3,1.2.9,7.1-.2,8.3-1,1.1-2.7-3.2-5-3.5Z"/>
          <path class="st17" d="M151.3,244.9c-.3,0-1.6-2.2-2.4-2.9-1.1-1.1.3-10.7.3-10.7,0,0-1.1-2.4,1.1-4.9,1.5-1.8,4.1-2,8.5-2.7,1.7-.3,3.5-.5,5.2-.9,1.8-.5,3.6-1.7,5.2-2.5.6-.3,1.2-.6,1.8-.4.6.2,1,.7,1.1,1.3.1.6,0,1.2,0,1.8,1-1.1,3-1,4.1.1,1,1.1,1.2,2.9.6,4.3s-1.7,2.5-3,3.4c-5.5,3.7-12.1,2.7-18.3,2-.3,0-.6,0-.9,0-1,.4-1.2,3.5-1.3,4.3-.6,2.9-1,7.9-2.2,7.9Z"/>
          <path class="st17" d="M149.3,231.8l-3.9-2.2c.6-1.2,1.9-1.6,3-1,1.1.6,1.5,2.1,1,3.2Z"/>
          <path class="st1" d="M163.4,258s-5.9-1.2-7.9-2.4c-1.4-.8-2.5-2.1-2.8-2.9,0,0,.4,1.8,1.6,3.4,1.5,2,9.1,3.5,9.1,3.5v-1.6Z"/>
        </g>
        <g>
          <path class="st17" d="M161.3,241.9c0,.7-.5,1.3-1.2,1.3s-1.2-.6-1.2-1.3.5-1.3,1.2-1.3c.6,0,1.2.6,1.2,1.3Z"/>
          <path class="st17" d="M159.3,236.8l-2.5,1.4c-.4-.8-.1-1.7.6-2.1.7-.4,1.6-.1,1.9.6Z"/>
          <path class="st1" d="M162.9,250.7l2.7,1c-.3.8-1.1,1.2-1.8.9-.7-.3-1.1-1.2-.9-2Z"/>
          <path class="st17" d="M173,238.2l-2.6-1.3c.3-.8,1.1-1.1,1.9-.8.7.4,1.1,1.3.8,2Z"/>
          <path class="st17" d="M171.3,241.9c0,.7-.5,1.3-1.2,1.3-.6,0-1.2-.6-1.2-1.3s.5-1.3,1.2-1.3c.6,0,1.2.6,1.2,1.3Z"/>
          <polygon class="st1" points="164.6 241 164.8 248.4 169 247.4 164.6 241"/>
        </g>
      </g>
      <g>
        <path class="st17" d="M159.5,238.8c-1.6,0-2.9,1.3-2.9,2.9s1.3,2.9,2.9,2.9h.5c1.6,0,2.9-1.3,2.9-2.9s-1.3-2.9-2.9-2.9h-.5ZM156,241.8c0-1.9,1.6-3.5,3.5-3.5h.5c1.9,0,3.5,1.6,3.5,3.5s-1.6,3.5-3.5,3.5h-.5c-1.9,0-3.5-1.6-3.5-3.5Z"/>
        <path class="st17" d="M170,238.8c-1.6,0-2.9,1.3-2.9,2.9s1.3,2.9,2.9,2.9h.5c1.6,0,2.9-1.3,2.9-2.9s-1.3-2.9-2.9-2.9h-.5ZM166.6,241.8c0-1.9,1.6-3.5,3.5-3.5h.5c1.9,0,3.5,1.6,3.5,3.5s-1.6,3.5-3.5,3.5h-.5c-1.9,0-3.5-1.6-3.5-3.5Z"/>
        <path class="st17" d="M163.4,241.1c.3-.5,1-.9,1.8-.9.7,0,1.3.2,1.6.6l.5-.4c-.4-.6-1.2-.9-2.1-.8-1,0-1.9.5-2.3,1.2l.5.3Z"/>
        <rect class="st17" x="150.4" y="241" width="6" height=".6"/>
      </g>
    </g>
  </g>
</svg>